<mxfile host="65bd71144e">
    <diagram id="ZtsDMBzjGlMTBSv4vscD" name="Page-1">
        <mxGraphModel dx="1216" dy="734" grid="1" gridSize="10" guides="1" tooltips="1" connect="1" arrows="1" fold="1" page="1" pageScale="1" pageWidth="827" pageHeight="1169" math="0" shadow="0">
            <root>
                <mxCell id="0"/>
                <mxCell id="1" parent="0"/>
                <mxCell id="257" value="" style="rounded=0;whiteSpace=wrap;html=1;" vertex="1" parent="1">
                    <mxGeometry x="10" width="1160" height="2370" as="geometry"/>
                </mxCell>
                <mxCell id="33" value="" style="rounded=1;whiteSpace=wrap;html=1;arcSize=8;" parent="1" vertex="1">
                    <mxGeometry x="40" y="50" width="500" height="300" as="geometry"/>
                </mxCell>
                <mxCell id="8" value="" style="rounded=1;whiteSpace=wrap;html=1;arcSize=8;" parent="1" vertex="1">
                    <mxGeometry x="30" y="450" width="500" height="300" as="geometry"/>
                </mxCell>
                <mxCell id="15" value="" style="rounded=0;whiteSpace=wrap;html=1;glass=0;sketch=0;" parent="1" vertex="1">
                    <mxGeometry x="120" y="490" width="390" height="250" as="geometry"/>
                </mxCell>
                <mxCell id="3" value="▪️ログイン" style="text;html=1;strokeColor=none;fillColor=none;align=center;verticalAlign=middle;whiteSpace=wrap;rounded=0;" parent="1" vertex="1">
                    <mxGeometry x="50" y="20" width="120" height="30" as="geometry"/>
                </mxCell>
                <mxCell id="4" value="ID" style="rounded=1;whiteSpace=wrap;html=1;glass=0;arcSize=50;" parent="1" vertex="1">
                    <mxGeometry x="220" y="120" width="150" height="30" as="geometry"/>
                </mxCell>
                <mxCell id="6" value="Password" style="rounded=1;whiteSpace=wrap;html=1;glass=0;arcSize=50;" parent="1" vertex="1">
                    <mxGeometry x="220" y="170" width="150" height="30" as="geometry"/>
                </mxCell>
                <mxCell id="7" value="ログイン" style="rounded=1;whiteSpace=wrap;html=1;glass=0;arcSize=40;" parent="1" vertex="1">
                    <mxGeometry x="310" y="220" width="60" height="30" as="geometry"/>
                </mxCell>
                <mxCell id="9" value="▪️求人一覧画面" style="text;html=1;strokeColor=none;fillColor=none;align=center;verticalAlign=middle;whiteSpace=wrap;rounded=0;" parent="1" vertex="1">
                    <mxGeometry x="20" y="420" width="120" height="30" as="geometry"/>
                </mxCell>
                <mxCell id="13" value="検索" style="rounded=0;whiteSpace=wrap;html=1;glass=0;sketch=0;align=left;" parent="1" vertex="1">
                    <mxGeometry x="50" y="460" width="120" height="20" as="geometry"/>
                </mxCell>
                <mxCell id="14" value="&lt;br&gt;&lt;br&gt;経営企画室&lt;br&gt;&lt;br&gt;営業本部&lt;br&gt;&lt;br&gt;技術開発本部&lt;br&gt;&lt;br&gt;経理部" style="rounded=0;whiteSpace=wrap;html=1;glass=0;sketch=0;align=left;verticalAlign=top;" parent="1" vertex="1">
                    <mxGeometry x="40" y="490" width="80" height="250" as="geometry"/>
                </mxCell>
                <mxCell id="16" value="募集部門" style="rounded=0;whiteSpace=wrap;html=1;glass=0;sketch=0;strokeColor=none;" parent="1" vertex="1">
                    <mxGeometry x="40" y="490" width="80" height="30" as="geometry"/>
                </mxCell>
                <mxCell id="17" value="部門名" style="rounded=0;whiteSpace=wrap;html=1;glass=0;sketch=0;" parent="1" vertex="1">
                    <mxGeometry x="120" y="490" width="70" height="30" as="geometry"/>
                </mxCell>
                <mxCell id="18" value="求人番号" style="rounded=0;whiteSpace=wrap;html=1;glass=0;sketch=0;" parent="1" vertex="1">
                    <mxGeometry x="180" y="490" width="60" height="30" as="geometry"/>
                </mxCell>
                <mxCell id="19" value="募集職種" style="rounded=0;whiteSpace=wrap;html=1;glass=0;sketch=0;" parent="1" vertex="1">
                    <mxGeometry x="240" y="490" width="170" height="30" as="geometry"/>
                </mxCell>
                <mxCell id="20" value="公開日" style="rounded=0;whiteSpace=wrap;html=1;glass=0;sketch=0;" parent="1" vertex="1">
                    <mxGeometry x="410" y="490" width="100" height="30" as="geometry"/>
                </mxCell>
                <mxCell id="21" value="経理部" style="rounded=0;whiteSpace=wrap;html=1;glass=0;sketch=0;fontSize=10;align=left;" parent="1" vertex="1">
                    <mxGeometry x="120" y="520" width="60" height="30" as="geometry"/>
                </mxCell>
                <mxCell id="22" value="A001" style="rounded=0;whiteSpace=wrap;html=1;glass=0;sketch=0;fontSize=9;" parent="1" vertex="1">
                    <mxGeometry x="180" y="520" width="60" height="30" as="geometry"/>
                </mxCell>
                <mxCell id="23" value="財務担当者" style="rounded=0;whiteSpace=wrap;html=1;glass=0;sketch=0;align=left;fontSize=9;" parent="1" vertex="1">
                    <mxGeometry x="240" y="520" width="170" height="30" as="geometry"/>
                </mxCell>
                <mxCell id="24" value="20230620" style="rounded=0;whiteSpace=wrap;html=1;glass=0;sketch=0;align=left;fontSize=9;" parent="1" vertex="1">
                    <mxGeometry x="410" y="520" width="100" height="30" as="geometry"/>
                </mxCell>
                <mxCell id="25" value="&lt;font style=&quot;font-size: 9px;&quot;&gt;技術開発本部&lt;/font&gt;" style="rounded=0;whiteSpace=wrap;html=1;glass=0;sketch=0;align=left;" parent="1" vertex="1">
                    <mxGeometry x="120" y="550" width="60" height="30" as="geometry"/>
                </mxCell>
                <mxCell id="26" value="A002" style="rounded=0;whiteSpace=wrap;html=1;glass=0;sketch=0;fontSize=9;" parent="1" vertex="1">
                    <mxGeometry x="180" y="550" width="60" height="30" as="geometry"/>
                </mxCell>
                <mxCell id="27" value="システムエンジニア" style="rounded=0;whiteSpace=wrap;html=1;glass=0;sketch=0;align=left;fontSize=9;" parent="1" vertex="1">
                    <mxGeometry x="240" y="550" width="170" height="30" as="geometry"/>
                </mxCell>
                <mxCell id="28" value="20230620" style="rounded=0;whiteSpace=wrap;html=1;glass=0;sketch=0;align=left;fontSize=9;" parent="1" vertex="1">
                    <mxGeometry x="410" y="550" width="100" height="30" as="geometry"/>
                </mxCell>
                <mxCell id="29" value="&lt;font style=&quot;font-size: 9px;&quot;&gt;技術開発本部&lt;/font&gt;" style="rounded=0;whiteSpace=wrap;html=1;glass=0;sketch=0;align=left;" parent="1" vertex="1">
                    <mxGeometry x="120" y="580" width="60" height="30" as="geometry"/>
                </mxCell>
                <mxCell id="30" value="A003" style="rounded=0;whiteSpace=wrap;html=1;glass=0;sketch=0;fontSize=9;" parent="1" vertex="1">
                    <mxGeometry x="180" y="580" width="60" height="30" as="geometry"/>
                </mxCell>
                <mxCell id="31" value="プログラマー" style="rounded=0;whiteSpace=wrap;html=1;glass=0;sketch=0;align=left;fontSize=9;" parent="1" vertex="1">
                    <mxGeometry x="240" y="580" width="170" height="30" as="geometry"/>
                </mxCell>
                <mxCell id="32" value="20230620" style="rounded=0;whiteSpace=wrap;html=1;glass=0;sketch=0;align=left;fontSize=9;" parent="1" vertex="1">
                    <mxGeometry x="410" y="580" width="100" height="30" as="geometry"/>
                </mxCell>
                <mxCell id="36" value="" style="rounded=1;whiteSpace=wrap;html=1;arcSize=8;" parent="1" vertex="1">
                    <mxGeometry x="30" y="840" width="500" height="300" as="geometry"/>
                </mxCell>
                <mxCell id="37" value="経理部" style="rounded=0;whiteSpace=wrap;html=1;glass=0;sketch=0;align=left;" parent="1" vertex="1">
                    <mxGeometry x="50" y="870" width="120" height="20" as="geometry"/>
                </mxCell>
                <mxCell id="38" value="募集部門" style="text;html=1;strokeColor=none;fillColor=none;align=center;verticalAlign=middle;whiteSpace=wrap;rounded=0;glass=0;sketch=0;fontSize=10;" parent="1" vertex="1">
                    <mxGeometry x="40" y="840" width="60" height="30" as="geometry"/>
                </mxCell>
                <mxCell id="39" value="財務担当者" style="rounded=0;whiteSpace=wrap;html=1;glass=0;sketch=0;align=left;" parent="1" vertex="1">
                    <mxGeometry x="190" y="870" width="120" height="20" as="geometry"/>
                </mxCell>
                <mxCell id="40" value="職種名" style="text;html=1;strokeColor=none;fillColor=none;align=center;verticalAlign=middle;whiteSpace=wrap;rounded=0;glass=0;sketch=0;fontSize=10;" parent="1" vertex="1">
                    <mxGeometry x="180" y="840" width="60" height="30" as="geometry"/>
                </mxCell>
                <mxCell id="41" value="業務内容" style="text;html=1;strokeColor=none;fillColor=none;align=center;verticalAlign=middle;whiteSpace=wrap;rounded=0;glass=0;sketch=0;fontSize=10;" parent="1" vertex="1">
                    <mxGeometry x="40" y="890" width="60" height="30" as="geometry"/>
                </mxCell>
                <mxCell id="42" value="〜〜〜&lt;br style=&quot;border-color: var(--border-color);&quot;&gt;〜〜〜&lt;br style=&quot;border-color: var(--border-color);&quot;&gt;〜〜〜" style="rounded=0;whiteSpace=wrap;html=1;glass=0;sketch=0;align=left;horizontal=1;verticalAlign=top;" parent="1" vertex="1">
                    <mxGeometry x="50" y="920" width="450" height="70" as="geometry"/>
                </mxCell>
                <mxCell id="44" value="▪️求人詳細画面" style="text;html=1;strokeColor=none;fillColor=none;align=center;verticalAlign=middle;whiteSpace=wrap;rounded=0;" parent="1" vertex="1">
                    <mxGeometry x="20" y="800" width="120" height="30" as="geometry"/>
                </mxCell>
                <mxCell id="45" value="応募画面に進む" style="rounded=1;whiteSpace=wrap;html=1;glass=0;arcSize=40;" parent="1" vertex="1">
                    <mxGeometry x="220" y="1100" width="100" height="30" as="geometry"/>
                </mxCell>
                <mxCell id="48" value="" style="rounded=1;whiteSpace=wrap;html=1;arcSize=8;" parent="1" vertex="1">
                    <mxGeometry x="30" y="1209" width="500" height="300" as="geometry"/>
                </mxCell>
                <mxCell id="49" value="▪️応募画面" style="text;html=1;strokeColor=none;fillColor=none;align=center;verticalAlign=middle;whiteSpace=wrap;rounded=0;" parent="1" vertex="1">
                    <mxGeometry x="20" y="1169" width="120" height="30" as="geometry"/>
                </mxCell>
                <mxCell id="51" value="応募職種" style="text;html=1;strokeColor=none;fillColor=none;align=center;verticalAlign=middle;whiteSpace=wrap;rounded=0;glass=0;sketch=0;fontSize=10;" parent="1" vertex="1">
                    <mxGeometry x="50" y="1200" width="60" height="30" as="geometry"/>
                </mxCell>
                <mxCell id="52" value="〜〜〜&lt;br&gt;〜〜〜&lt;br&gt;〜〜〜" style="rounded=0;whiteSpace=wrap;html=1;glass=0;sketch=0;align=left;horizontal=1;verticalAlign=top;" parent="1" vertex="1">
                    <mxGeometry x="60" y="1230" width="450" height="50" as="geometry"/>
                </mxCell>
                <mxCell id="53" value="志望動機" style="text;html=1;strokeColor=none;fillColor=none;align=center;verticalAlign=middle;whiteSpace=wrap;rounded=0;glass=0;sketch=0;fontSize=10;" parent="1" vertex="1">
                    <mxGeometry x="50" y="1290" width="60" height="30" as="geometry"/>
                </mxCell>
                <mxCell id="54" value="" style="rounded=0;whiteSpace=wrap;html=1;glass=0;sketch=0;align=left;horizontal=1;verticalAlign=top;" parent="1" vertex="1">
                    <mxGeometry x="60" y="1320" width="450" height="50" as="geometry"/>
                </mxCell>
                <mxCell id="55" value="保有スキル・資格" style="text;html=1;strokeColor=none;fillColor=none;align=center;verticalAlign=middle;whiteSpace=wrap;rounded=0;glass=0;sketch=0;fontSize=10;" parent="1" vertex="1">
                    <mxGeometry x="50" y="1380" width="90" height="30" as="geometry"/>
                </mxCell>
                <mxCell id="56" value="" style="rounded=0;whiteSpace=wrap;html=1;glass=0;sketch=0;align=left;horizontal=1;verticalAlign=top;" parent="1" vertex="1">
                    <mxGeometry x="60" y="1410" width="450" height="50" as="geometry"/>
                </mxCell>
                <mxCell id="57" value="入力内容を確認する" style="rounded=1;whiteSpace=wrap;html=1;glass=0;arcSize=40;" parent="1" vertex="1">
                    <mxGeometry x="230" y="1469" width="110" height="30" as="geometry"/>
                </mxCell>
                <mxCell id="72" value="" style="rounded=1;whiteSpace=wrap;html=1;arcSize=8;" parent="1" vertex="1">
                    <mxGeometry x="35" y="1899" width="500" height="300" as="geometry"/>
                </mxCell>
                <mxCell id="73" value="応募職種" style="text;html=1;strokeColor=none;fillColor=none;align=center;verticalAlign=middle;whiteSpace=wrap;rounded=0;glass=0;sketch=0;fontSize=10;" parent="1" vertex="1">
                    <mxGeometry x="55" y="1920" width="60" height="30" as="geometry"/>
                </mxCell>
                <mxCell id="74" value="〜〜〜&lt;br&gt;〜〜〜&lt;br&gt;〜〜〜" style="rounded=0;whiteSpace=wrap;html=1;glass=0;sketch=0;align=left;horizontal=1;verticalAlign=top;" parent="1" vertex="1">
                    <mxGeometry x="65" y="1950" width="450" height="50" as="geometry"/>
                </mxCell>
                <mxCell id="75" value="志望動機" style="text;html=1;strokeColor=none;fillColor=none;align=center;verticalAlign=middle;whiteSpace=wrap;rounded=0;glass=0;sketch=0;fontSize=10;" parent="1" vertex="1">
                    <mxGeometry x="55" y="2010" width="60" height="30" as="geometry"/>
                </mxCell>
                <mxCell id="76" value="〜〜〜&lt;br style=&quot;border-color: var(--border-color);&quot;&gt;〜〜〜&lt;br style=&quot;border-color: var(--border-color);&quot;&gt;〜〜〜" style="rounded=0;whiteSpace=wrap;html=1;glass=0;sketch=0;align=left;horizontal=1;verticalAlign=top;" parent="1" vertex="1">
                    <mxGeometry x="65" y="2040" width="450" height="50" as="geometry"/>
                </mxCell>
                <mxCell id="77" value="保有スキル・資格" style="text;html=1;strokeColor=none;fillColor=none;align=center;verticalAlign=middle;whiteSpace=wrap;rounded=0;glass=0;sketch=0;fontSize=10;" parent="1" vertex="1">
                    <mxGeometry x="50" y="2089" width="90" height="30" as="geometry"/>
                </mxCell>
                <mxCell id="78" value="〜〜〜&lt;br style=&quot;border-color: var(--border-color);&quot;&gt;〜〜〜&lt;br style=&quot;border-color: var(--border-color);&quot;&gt;〜〜〜" style="rounded=0;whiteSpace=wrap;html=1;glass=0;sketch=0;align=left;horizontal=1;verticalAlign=top;" parent="1" vertex="1">
                    <mxGeometry x="60" y="2119" width="450" height="50" as="geometry"/>
                </mxCell>
                <mxCell id="80" value="▪️応募完了画面" style="text;html=1;strokeColor=none;fillColor=none;align=center;verticalAlign=middle;whiteSpace=wrap;rounded=0;" parent="1" vertex="1">
                    <mxGeometry x="25" y="1869" width="120" height="30" as="geometry"/>
                </mxCell>
                <mxCell id="81" value="以下の内容で応募しました。" style="text;html=1;strokeColor=none;fillColor=none;align=center;verticalAlign=middle;whiteSpace=wrap;rounded=0;glass=0;sketch=0;fontSize=10;" parent="1" vertex="1">
                    <mxGeometry x="195" y="1899" width="210" height="30" as="geometry"/>
                </mxCell>
                <mxCell id="105" value="" style="rounded=1;whiteSpace=wrap;html=1;arcSize=8;" parent="1" vertex="1">
                    <mxGeometry x="630" y="50" width="500" height="300" as="geometry"/>
                </mxCell>
                <mxCell id="107" value="経理部求人ダッシュボード" style="text;html=1;strokeColor=none;fillColor=none;align=center;verticalAlign=middle;whiteSpace=wrap;rounded=0;glass=0;sketch=0;fontSize=10;" parent="1" vertex="1">
                    <mxGeometry x="640" y="50" width="130" height="30" as="geometry"/>
                </mxCell>
                <mxCell id="110" value="求人一覧" style="text;html=1;strokeColor=none;fillColor=none;align=center;verticalAlign=middle;whiteSpace=wrap;rounded=0;glass=0;sketch=0;fontSize=10;" parent="1" vertex="1">
                    <mxGeometry x="640" y="90" width="80" height="30" as="geometry"/>
                </mxCell>
                <mxCell id="112" value="新規求人登録" style="rounded=1;whiteSpace=wrap;html=1;glass=0;arcSize=40;" parent="1" vertex="1">
                    <mxGeometry x="1010" y="70" width="90" height="30" as="geometry"/>
                </mxCell>
                <mxCell id="113" value="求人番号" style="rounded=0;whiteSpace=wrap;html=1;glass=0;sketch=0;" parent="1" vertex="1">
                    <mxGeometry x="650" y="120" width="60" height="30" as="geometry"/>
                </mxCell>
                <mxCell id="114" value="募集職種" style="rounded=0;whiteSpace=wrap;html=1;glass=0;sketch=0;" parent="1" vertex="1">
                    <mxGeometry x="710" y="120" width="170" height="30" as="geometry"/>
                </mxCell>
                <mxCell id="115" value="ステータス" style="rounded=0;whiteSpace=wrap;html=1;glass=0;sketch=0;" parent="1" vertex="1">
                    <mxGeometry x="880" y="120" width="70" height="30" as="geometry"/>
                </mxCell>
                <mxCell id="116" value="A001" style="rounded=0;whiteSpace=wrap;html=1;glass=0;sketch=0;fontSize=9;" parent="1" vertex="1">
                    <mxGeometry x="650" y="150" width="60" height="30" as="geometry"/>
                </mxCell>
                <mxCell id="117" value="財務担当者" style="rounded=0;whiteSpace=wrap;html=1;glass=0;sketch=0;align=left;fontSize=9;" parent="1" vertex="1">
                    <mxGeometry x="710" y="150" width="170" height="30" as="geometry"/>
                </mxCell>
                <mxCell id="118" value="募集中" style="rounded=0;whiteSpace=wrap;html=1;glass=0;sketch=0;align=left;fontSize=9;" parent="1" vertex="1">
                    <mxGeometry x="880" y="150" width="70" height="30" as="geometry"/>
                </mxCell>
                <mxCell id="119" value="A009" style="rounded=0;whiteSpace=wrap;html=1;glass=0;sketch=0;fontSize=9;" parent="1" vertex="1">
                    <mxGeometry x="650" y="180" width="60" height="30" as="geometry"/>
                </mxCell>
                <mxCell id="120" value="経理担当者" style="rounded=0;whiteSpace=wrap;html=1;glass=0;sketch=0;align=left;fontSize=9;" parent="1" vertex="1">
                    <mxGeometry x="710" y="180" width="170" height="30" as="geometry"/>
                </mxCell>
                <mxCell id="121" value="募集終了" style="rounded=0;whiteSpace=wrap;html=1;glass=0;sketch=0;align=left;fontSize=9;" parent="1" vertex="1">
                    <mxGeometry x="880" y="180" width="70" height="30" as="geometry"/>
                </mxCell>
                <mxCell id="122" value="応募者" style="rounded=0;whiteSpace=wrap;html=1;glass=0;sketch=0;" parent="1" vertex="1">
                    <mxGeometry x="1010" y="120" width="50" height="30" as="geometry"/>
                </mxCell>
                <mxCell id="123" value="2" style="rounded=0;whiteSpace=wrap;html=1;glass=0;sketch=0;align=left;fontSize=9;" parent="1" vertex="1">
                    <mxGeometry x="1010" y="150" width="50" height="30" as="geometry"/>
                </mxCell>
                <mxCell id="124" value="1" style="rounded=0;whiteSpace=wrap;html=1;glass=0;sketch=0;align=left;fontSize=9;" parent="1" vertex="1">
                    <mxGeometry x="1010" y="180" width="50" height="30" as="geometry"/>
                </mxCell>
                <mxCell id="125" value="公開日" style="rounded=0;whiteSpace=wrap;html=1;glass=0;sketch=0;" parent="1" vertex="1">
                    <mxGeometry x="950" y="120" width="60" height="30" as="geometry"/>
                </mxCell>
                <mxCell id="126" value="20230620" style="rounded=0;whiteSpace=wrap;html=1;glass=0;sketch=0;align=left;fontSize=9;" parent="1" vertex="1">
                    <mxGeometry x="950" y="150" width="60" height="30" as="geometry"/>
                </mxCell>
                <mxCell id="127" value="20230521" style="rounded=0;whiteSpace=wrap;html=1;glass=0;sketch=0;align=left;fontSize=9;" parent="1" vertex="1">
                    <mxGeometry x="950" y="180" width="60" height="30" as="geometry"/>
                </mxCell>
                <mxCell id="128" value="全て" style="rounded=1;whiteSpace=wrap;html=1;glass=0;arcSize=27;align=left;" parent="1" vertex="1">
                    <mxGeometry x="710" y="95" width="50" height="20" as="geometry"/>
                </mxCell>
                <mxCell id="129" value="" style="triangle;whiteSpace=wrap;html=1;glass=0;sketch=0;fontSize=10;rotation=90;fillColor=#000000;" parent="1" vertex="1">
                    <mxGeometry x="740" y="100" width="10" height="10" as="geometry"/>
                </mxCell>
                <mxCell id="131" value="応募条件" style="text;html=1;strokeColor=none;fillColor=none;align=center;verticalAlign=middle;whiteSpace=wrap;rounded=0;glass=0;sketch=0;fontSize=10;" parent="1" vertex="1">
                    <mxGeometry x="40" y="990" width="60" height="30" as="geometry"/>
                </mxCell>
                <mxCell id="132" value="〜〜〜&lt;br style=&quot;border-color: var(--border-color);&quot;&gt;〜〜〜&lt;br style=&quot;border-color: var(--border-color);&quot;&gt;〜〜〜" style="rounded=0;whiteSpace=wrap;html=1;glass=0;sketch=0;align=left;horizontal=1;verticalAlign=top;" parent="1" vertex="1">
                    <mxGeometry x="50" y="1020" width="450" height="70" as="geometry"/>
                </mxCell>
                <mxCell id="133" value="" style="rounded=1;whiteSpace=wrap;html=1;arcSize=8;" parent="1" vertex="1">
                    <mxGeometry x="630" y="450" width="500" height="300" as="geometry"/>
                </mxCell>
                <mxCell id="135" value="経理部" style="text;html=1;strokeColor=none;fillColor=none;align=center;verticalAlign=middle;whiteSpace=wrap;rounded=0;glass=0;sketch=0;fontSize=10;" parent="1" vertex="1">
                    <mxGeometry x="640" y="450" width="60" height="30" as="geometry"/>
                </mxCell>
                <mxCell id="136" value="" style="rounded=0;whiteSpace=wrap;html=1;glass=0;sketch=0;align=left;" parent="1" vertex="1">
                    <mxGeometry x="650" y="510" width="120" height="20" as="geometry"/>
                </mxCell>
                <mxCell id="137" value="職種名" style="text;html=1;strokeColor=none;fillColor=none;align=center;verticalAlign=middle;whiteSpace=wrap;rounded=0;glass=0;sketch=0;fontSize=10;" parent="1" vertex="1">
                    <mxGeometry x="630" y="480" width="60" height="30" as="geometry"/>
                </mxCell>
                <mxCell id="138" value="業務内容" style="text;html=1;strokeColor=none;fillColor=none;align=center;verticalAlign=middle;whiteSpace=wrap;rounded=0;glass=0;sketch=0;fontSize=10;" parent="1" vertex="1">
                    <mxGeometry x="640" y="530" width="60" height="30" as="geometry"/>
                </mxCell>
                <mxCell id="139" value="" style="rounded=0;whiteSpace=wrap;html=1;glass=0;sketch=0;align=left;horizontal=1;verticalAlign=top;" parent="1" vertex="1">
                    <mxGeometry x="650" y="560" width="450" height="40" as="geometry"/>
                </mxCell>
                <mxCell id="140" value="▪️求人登録画面" style="text;html=1;strokeColor=none;fillColor=none;align=center;verticalAlign=middle;whiteSpace=wrap;rounded=0;" parent="1" vertex="1">
                    <mxGeometry x="620" y="410" width="120" height="30" as="geometry"/>
                </mxCell>
                <mxCell id="141" value="入力内容を確認する" style="rounded=1;whiteSpace=wrap;html=1;glass=0;arcSize=40;" parent="1" vertex="1">
                    <mxGeometry x="835" y="710" width="110" height="30" as="geometry"/>
                </mxCell>
                <mxCell id="142" value="応募条件" style="text;html=1;strokeColor=none;fillColor=none;align=center;verticalAlign=middle;whiteSpace=wrap;rounded=0;glass=0;sketch=0;fontSize=10;" parent="1" vertex="1">
                    <mxGeometry x="640" y="600" width="60" height="30" as="geometry"/>
                </mxCell>
                <mxCell id="143" value="" style="rounded=0;whiteSpace=wrap;html=1;glass=0;sketch=0;align=left;horizontal=1;verticalAlign=top;" parent="1" vertex="1">
                    <mxGeometry x="650" y="630" width="450" height="70" as="geometry"/>
                </mxCell>
                <mxCell id="144" value="▪️求人部門ダッシュボード" style="text;html=1;strokeColor=none;fillColor=none;align=center;verticalAlign=middle;whiteSpace=wrap;rounded=0;" parent="1" vertex="1">
                    <mxGeometry x="620" y="10" width="170" height="30" as="geometry"/>
                </mxCell>
                <mxCell id="145" value="" style="rounded=1;whiteSpace=wrap;html=1;arcSize=8;" parent="1" vertex="1">
                    <mxGeometry x="650" y="1230" width="500" height="300" as="geometry"/>
                </mxCell>
                <mxCell id="146" value="経理部" style="text;html=1;strokeColor=none;fillColor=none;align=center;verticalAlign=middle;whiteSpace=wrap;rounded=0;glass=0;sketch=0;fontSize=10;" parent="1" vertex="1">
                    <mxGeometry x="660" y="1230" width="60" height="30" as="geometry"/>
                </mxCell>
                <mxCell id="147" value="〜〜〜" style="rounded=0;whiteSpace=wrap;html=1;glass=0;sketch=0;align=left;" parent="1" vertex="1">
                    <mxGeometry x="670" y="1290" width="120" height="20" as="geometry"/>
                </mxCell>
                <mxCell id="148" value="職種名" style="text;html=1;strokeColor=none;fillColor=none;align=center;verticalAlign=middle;whiteSpace=wrap;rounded=0;glass=0;sketch=0;fontSize=10;" parent="1" vertex="1">
                    <mxGeometry x="650" y="1260" width="60" height="30" as="geometry"/>
                </mxCell>
                <mxCell id="149" value="業務内容" style="text;html=1;strokeColor=none;fillColor=none;align=center;verticalAlign=middle;whiteSpace=wrap;rounded=0;glass=0;sketch=0;fontSize=10;" parent="1" vertex="1">
                    <mxGeometry x="660" y="1310" width="60" height="30" as="geometry"/>
                </mxCell>
                <mxCell id="150" value="〜〜〜&lt;br&gt;〜〜〜" style="rounded=0;whiteSpace=wrap;html=1;glass=0;sketch=0;align=left;horizontal=1;verticalAlign=top;" parent="1" vertex="1">
                    <mxGeometry x="670" y="1340" width="450" height="40" as="geometry"/>
                </mxCell>
                <mxCell id="152" value="応募条件" style="text;html=1;strokeColor=none;fillColor=none;align=center;verticalAlign=middle;whiteSpace=wrap;rounded=0;glass=0;sketch=0;fontSize=10;" parent="1" vertex="1">
                    <mxGeometry x="660" y="1380" width="60" height="30" as="geometry"/>
                </mxCell>
                <mxCell id="153" value="〜〜〜&lt;br&gt;〜〜〜" style="rounded=0;whiteSpace=wrap;html=1;glass=0;sketch=0;align=left;horizontal=1;verticalAlign=top;" parent="1" vertex="1">
                    <mxGeometry x="670" y="1410" width="450" height="70" as="geometry"/>
                </mxCell>
                <mxCell id="154" value="▪️求人編集画面" style="text;html=1;strokeColor=none;fillColor=none;align=center;verticalAlign=middle;whiteSpace=wrap;rounded=0;" parent="1" vertex="1">
                    <mxGeometry x="630" y="1190" width="120" height="30" as="geometry"/>
                </mxCell>
                <mxCell id="155" value="" style="rounded=1;whiteSpace=wrap;html=1;arcSize=8;" parent="1" vertex="1">
                    <mxGeometry x="650" y="1599" width="500" height="300" as="geometry"/>
                </mxCell>
                <mxCell id="156" value="経理部" style="text;html=1;strokeColor=none;fillColor=none;align=center;verticalAlign=middle;whiteSpace=wrap;rounded=0;glass=0;sketch=0;fontSize=10;" parent="1" vertex="1">
                    <mxGeometry x="660" y="1599" width="60" height="30" as="geometry"/>
                </mxCell>
                <mxCell id="157" value="財務担当者　　　▼" style="rounded=0;whiteSpace=wrap;html=1;glass=0;sketch=0;align=left;" parent="1" vertex="1">
                    <mxGeometry x="670" y="1659" width="120" height="20" as="geometry"/>
                </mxCell>
                <mxCell id="158" value="職種名" style="text;html=1;strokeColor=none;fillColor=none;align=center;verticalAlign=middle;whiteSpace=wrap;rounded=0;glass=0;sketch=0;fontSize=10;" parent="1" vertex="1">
                    <mxGeometry x="650" y="1629" width="60" height="30" as="geometry"/>
                </mxCell>
                <mxCell id="164" value="▪️応募者一覧画面" style="text;html=1;strokeColor=none;fillColor=none;align=center;verticalAlign=middle;whiteSpace=wrap;rounded=0;" parent="1" vertex="1">
                    <mxGeometry x="630" y="1559" width="120" height="30" as="geometry"/>
                </mxCell>
                <mxCell id="174" value="" style="rounded=1;whiteSpace=wrap;html=1;arcSize=8;" parent="1" vertex="1">
                    <mxGeometry x="35" y="1559" width="500" height="300" as="geometry"/>
                </mxCell>
                <mxCell id="175" value="応募職種" style="text;html=1;strokeColor=none;fillColor=none;align=center;verticalAlign=middle;whiteSpace=wrap;rounded=0;glass=0;sketch=0;fontSize=10;" parent="1" vertex="1">
                    <mxGeometry x="55" y="1550" width="60" height="30" as="geometry"/>
                </mxCell>
                <mxCell id="176" value="〜〜〜&lt;br&gt;〜〜〜&lt;br&gt;〜〜〜" style="rounded=0;whiteSpace=wrap;html=1;glass=0;sketch=0;align=left;horizontal=1;verticalAlign=top;" parent="1" vertex="1">
                    <mxGeometry x="65" y="1580" width="450" height="50" as="geometry"/>
                </mxCell>
                <mxCell id="177" value="志望動機" style="text;html=1;strokeColor=none;fillColor=none;align=center;verticalAlign=middle;whiteSpace=wrap;rounded=0;glass=0;sketch=0;fontSize=10;" parent="1" vertex="1">
                    <mxGeometry x="55" y="1640" width="60" height="30" as="geometry"/>
                </mxCell>
                <mxCell id="178" value="〜〜〜&lt;br style=&quot;border-color: var(--border-color);&quot;&gt;〜〜〜&lt;br style=&quot;border-color: var(--border-color);&quot;&gt;〜〜〜" style="rounded=0;whiteSpace=wrap;html=1;glass=0;sketch=0;align=left;horizontal=1;verticalAlign=top;" parent="1" vertex="1">
                    <mxGeometry x="65" y="1670" width="450" height="50" as="geometry"/>
                </mxCell>
                <mxCell id="179" value="保有スキル・資格" style="text;html=1;strokeColor=none;fillColor=none;align=center;verticalAlign=middle;whiteSpace=wrap;rounded=0;glass=0;sketch=0;fontSize=10;" parent="1" vertex="1">
                    <mxGeometry x="55" y="1730" width="90" height="30" as="geometry"/>
                </mxCell>
                <mxCell id="180" value="〜〜〜&lt;br style=&quot;border-color: var(--border-color);&quot;&gt;〜〜〜&lt;br style=&quot;border-color: var(--border-color);&quot;&gt;〜〜〜" style="rounded=0;whiteSpace=wrap;html=1;glass=0;sketch=0;align=left;horizontal=1;verticalAlign=top;" parent="1" vertex="1">
                    <mxGeometry x="65" y="1760" width="450" height="50" as="geometry"/>
                </mxCell>
                <mxCell id="181" value="修正する" style="rounded=1;whiteSpace=wrap;html=1;glass=0;arcSize=40;" parent="1" vertex="1">
                    <mxGeometry x="145" y="1820" width="100" height="30" as="geometry"/>
                </mxCell>
                <mxCell id="182" value="▪️応募確認画面" style="text;html=1;strokeColor=none;fillColor=none;align=center;verticalAlign=middle;whiteSpace=wrap;rounded=0;" parent="1" vertex="1">
                    <mxGeometry x="20" y="1529" width="120" height="30" as="geometry"/>
                </mxCell>
                <mxCell id="183" value="この内容で&lt;br&gt;応募する" style="rounded=1;whiteSpace=wrap;html=1;glass=0;arcSize=40;" parent="1" vertex="1">
                    <mxGeometry x="340" y="1820" width="100" height="30" as="geometry"/>
                </mxCell>
                <mxCell id="184" value="" style="rounded=1;whiteSpace=wrap;html=1;arcSize=8;" parent="1" vertex="1">
                    <mxGeometry x="645" y="840" width="500" height="300" as="geometry"/>
                </mxCell>
                <mxCell id="185" value="経理部" style="text;html=1;strokeColor=none;fillColor=none;align=center;verticalAlign=middle;whiteSpace=wrap;rounded=0;glass=0;sketch=0;fontSize=10;" parent="1" vertex="1">
                    <mxGeometry x="655" y="840" width="60" height="30" as="geometry"/>
                </mxCell>
                <mxCell id="186" value="〜〜〜" style="rounded=0;whiteSpace=wrap;html=1;glass=0;sketch=0;align=left;" parent="1" vertex="1">
                    <mxGeometry x="665" y="900" width="120" height="20" as="geometry"/>
                </mxCell>
                <mxCell id="187" value="職種名" style="text;html=1;strokeColor=none;fillColor=none;align=center;verticalAlign=middle;whiteSpace=wrap;rounded=0;glass=0;sketch=0;fontSize=10;" parent="1" vertex="1">
                    <mxGeometry x="645" y="870" width="60" height="30" as="geometry"/>
                </mxCell>
                <mxCell id="188" value="業務内容" style="text;html=1;strokeColor=none;fillColor=none;align=center;verticalAlign=middle;whiteSpace=wrap;rounded=0;glass=0;sketch=0;fontSize=10;" parent="1" vertex="1">
                    <mxGeometry x="655" y="920" width="60" height="30" as="geometry"/>
                </mxCell>
                <mxCell id="189" value="〜〜〜&lt;br style=&quot;border-color: var(--border-color);&quot;&gt;〜〜〜" style="rounded=0;whiteSpace=wrap;html=1;glass=0;sketch=0;align=left;horizontal=1;verticalAlign=top;" parent="1" vertex="1">
                    <mxGeometry x="665" y="950" width="450" height="40" as="geometry"/>
                </mxCell>
                <mxCell id="190" value="変更する" style="rounded=1;whiteSpace=wrap;html=1;glass=0;arcSize=40;" parent="1" vertex="1">
                    <mxGeometry x="865" y="1490" width="100" height="30" as="geometry"/>
                </mxCell>
                <mxCell id="191" value="応募条件" style="text;html=1;strokeColor=none;fillColor=none;align=center;verticalAlign=middle;whiteSpace=wrap;rounded=0;glass=0;sketch=0;fontSize=10;" parent="1" vertex="1">
                    <mxGeometry x="655" y="990" width="60" height="30" as="geometry"/>
                </mxCell>
                <mxCell id="192" value="〜〜〜&lt;br style=&quot;border-color: var(--border-color);&quot;&gt;〜〜〜&lt;br style=&quot;border-color: var(--border-color);&quot;&gt;〜〜〜" style="rounded=0;whiteSpace=wrap;html=1;glass=0;sketch=0;align=left;horizontal=1;verticalAlign=top;" parent="1" vertex="1">
                    <mxGeometry x="665" y="1020" width="450" height="70" as="geometry"/>
                </mxCell>
                <mxCell id="193" value="▪️求人登録確認画面" style="text;html=1;strokeColor=none;fillColor=none;align=center;verticalAlign=middle;whiteSpace=wrap;rounded=0;" parent="1" vertex="1">
                    <mxGeometry x="635" y="800" width="120" height="30" as="geometry"/>
                </mxCell>
                <mxCell id="194" value="修正する" style="rounded=1;whiteSpace=wrap;html=1;glass=0;arcSize=40;" parent="1" vertex="1">
                    <mxGeometry x="747.5" y="1100" width="100" height="30" as="geometry"/>
                </mxCell>
                <mxCell id="195" value="この内容で&lt;br&gt;登録する" style="rounded=1;whiteSpace=wrap;html=1;glass=0;arcSize=40;" parent="1" vertex="1">
                    <mxGeometry x="942.5" y="1100" width="100" height="30" as="geometry"/>
                </mxCell>
                <mxCell id="197" value="応募者番号" style="rounded=0;whiteSpace=wrap;html=1;glass=0;sketch=0;" parent="1" vertex="1">
                    <mxGeometry x="690" y="1700" width="70" height="30" as="geometry"/>
                </mxCell>
                <mxCell id="198" value="募集職種" style="rounded=0;whiteSpace=wrap;html=1;glass=0;sketch=0;" parent="1" vertex="1">
                    <mxGeometry x="760" y="1700" width="170" height="30" as="geometry"/>
                </mxCell>
                <mxCell id="199" value="所属部門" style="rounded=0;whiteSpace=wrap;html=1;glass=0;sketch=0;" parent="1" vertex="1">
                    <mxGeometry x="930" y="1700" width="110" height="30" as="geometry"/>
                </mxCell>
                <mxCell id="200" value="K001" style="rounded=0;whiteSpace=wrap;html=1;glass=0;sketch=0;fontSize=9;" parent="1" vertex="1">
                    <mxGeometry x="690" y="1730" width="70" height="30" as="geometry"/>
                </mxCell>
                <mxCell id="201" value="光電　太郎" style="rounded=0;whiteSpace=wrap;html=1;glass=0;sketch=0;align=left;fontSize=9;" parent="1" vertex="1">
                    <mxGeometry x="760" y="1730" width="170" height="30" as="geometry"/>
                </mxCell>
                <mxCell id="202" value="東京支社第一営業部" style="rounded=0;whiteSpace=wrap;html=1;glass=0;sketch=0;align=left;fontSize=9;" parent="1" vertex="1">
                    <mxGeometry x="930" y="1730" width="110" height="30" as="geometry"/>
                </mxCell>
                <mxCell id="203" value="K009" style="rounded=0;whiteSpace=wrap;html=1;glass=0;sketch=0;fontSize=9;" parent="1" vertex="1">
                    <mxGeometry x="690" y="1760" width="70" height="30" as="geometry"/>
                </mxCell>
                <mxCell id="204" value="光電　花子" style="rounded=0;whiteSpace=wrap;html=1;glass=0;sketch=0;align=left;fontSize=9;" parent="1" vertex="1">
                    <mxGeometry x="760" y="1760" width="170" height="30" as="geometry"/>
                </mxCell>
                <mxCell id="205" value="海外事業本部" style="rounded=0;whiteSpace=wrap;html=1;glass=0;sketch=0;align=left;fontSize=9;" parent="1" vertex="1">
                    <mxGeometry x="930" y="1760" width="110" height="30" as="geometry"/>
                </mxCell>
                <mxCell id="209" value="応募日" style="rounded=0;whiteSpace=wrap;html=1;glass=0;sketch=0;" parent="1" vertex="1">
                    <mxGeometry x="1040" y="1700" width="60" height="30" as="geometry"/>
                </mxCell>
                <mxCell id="210" value="20230620" style="rounded=0;whiteSpace=wrap;html=1;glass=0;sketch=0;align=left;fontSize=9;" parent="1" vertex="1">
                    <mxGeometry x="1040" y="1730" width="60" height="30" as="geometry"/>
                </mxCell>
                <mxCell id="211" value="20230521" style="rounded=0;whiteSpace=wrap;html=1;glass=0;sketch=0;align=left;fontSize=9;" parent="1" vertex="1">
                    <mxGeometry x="1040" y="1760" width="60" height="30" as="geometry"/>
                </mxCell>
                <mxCell id="232" value="" style="rounded=1;whiteSpace=wrap;html=1;arcSize=8;" parent="1" vertex="1">
                    <mxGeometry x="640" y="1980" width="500" height="300" as="geometry"/>
                </mxCell>
                <mxCell id="233" value="応募者詳細" style="text;html=1;strokeColor=none;fillColor=none;align=center;verticalAlign=middle;whiteSpace=wrap;rounded=0;glass=0;sketch=0;fontSize=10;" parent="1" vertex="1">
                    <mxGeometry x="650" y="1980" width="60" height="30" as="geometry"/>
                </mxCell>
                <mxCell id="235" value="光電　太郎" style="text;html=1;strokeColor=none;fillColor=none;align=center;verticalAlign=middle;whiteSpace=wrap;rounded=0;glass=0;sketch=0;fontSize=10;" parent="1" vertex="1">
                    <mxGeometry x="655" y="2010" width="60" height="30" as="geometry"/>
                </mxCell>
                <mxCell id="236" value="▪️応募者詳細画面" style="text;html=1;strokeColor=none;fillColor=none;align=center;verticalAlign=middle;whiteSpace=wrap;rounded=0;" parent="1" vertex="1">
                    <mxGeometry x="620" y="1940" width="120" height="30" as="geometry"/>
                </mxCell>
                <mxCell id="249" value="メールアドレス: aaa@gmail.com" style="text;html=1;strokeColor=none;fillColor=none;align=left;verticalAlign=middle;whiteSpace=wrap;rounded=0;glass=0;sketch=0;fontSize=10;" parent="1" vertex="1">
                    <mxGeometry x="655" y="2036" width="240" height="30" as="geometry"/>
                </mxCell>
                <mxCell id="250" value="電話番号:&amp;nbsp; 090-xxxx-xxxxx" style="text;html=1;strokeColor=none;fillColor=none;align=left;verticalAlign=middle;whiteSpace=wrap;rounded=0;glass=0;sketch=0;fontSize=10;" parent="1" vertex="1">
                    <mxGeometry x="655" y="2066" width="240" height="30" as="geometry"/>
                </mxCell>
                <mxCell id="251" value="現在の所属部署： 東京支社第一営業部" style="text;html=1;strokeColor=none;fillColor=none;align=left;verticalAlign=middle;whiteSpace=wrap;rounded=0;glass=0;sketch=0;fontSize=10;" parent="1" vertex="1">
                    <mxGeometry x="652.5" y="2095" width="240" height="30" as="geometry"/>
                </mxCell>
                <mxCell id="252" value="応募日： 2023年6月1日" style="text;html=1;strokeColor=none;fillColor=none;align=left;verticalAlign=middle;whiteSpace=wrap;rounded=0;glass=0;sketch=0;fontSize=10;" parent="1" vertex="1">
                    <mxGeometry x="652.5" y="2125" width="240" height="30" as="geometry"/>
                </mxCell>
                <mxCell id="253" value="志望動機：&amp;nbsp;" style="text;html=1;strokeColor=none;fillColor=none;align=left;verticalAlign=middle;whiteSpace=wrap;rounded=0;glass=0;sketch=0;fontSize=10;" parent="1" vertex="1">
                    <mxGeometry x="655.5" y="2155" width="240" height="30" as="geometry"/>
                </mxCell>
                <mxCell id="254" value="保有スキル・資格：&amp;nbsp;" style="text;html=1;strokeColor=none;fillColor=none;align=left;verticalAlign=middle;whiteSpace=wrap;rounded=0;glass=0;sketch=0;fontSize=10;" parent="1" vertex="1">
                    <mxGeometry x="655.5" y="2196" width="240" height="30" as="geometry"/>
                </mxCell>
                <mxCell id="255" value="2名" style="rounded=0;whiteSpace=wrap;html=1;glass=0;sketch=0;align=left;" parent="1" vertex="1">
                    <mxGeometry x="980" y="1290" width="120" height="20" as="geometry"/>
                </mxCell>
                <mxCell id="256" value="応募者" style="text;html=1;strokeColor=none;fillColor=none;align=center;verticalAlign=middle;whiteSpace=wrap;rounded=0;glass=0;sketch=0;fontSize=10;" parent="1" vertex="1">
                    <mxGeometry x="960" y="1260" width="60" height="30" as="geometry"/>
                </mxCell>
            </root>
        </mxGraphModel>
    </diagram>
</mxfile>
